<?xml version="1.0" encoding="utf-8"?>
<!-- Generator: Adobe Illustrator 16.0.0, SVG Export Plug-In . SVG Version: 6.00 Build 0)  -->
<!DOCTYPE svg PUBLIC "-//W3C//DTD SVG 1.1//EN" "http://www.w3.org/Graphics/SVG/1.1/DTD/svg11.dtd">
<svg version="1.1" id="Layer_1" xmlns="http://www.w3.org/2000/svg" xmlns:xlink="http://www.w3.org/1999/xlink" x="0px" y="0px"
	 width="102.41px" height="113.162px" viewBox="0 0 102.41 113.162" enable-background="new 0 0 102.41 113.162"
	 xml:space="preserve">
<g>
	<path fill="#67C9D3" d="M13.213,52.891c-1.616,0.851-3.142,1.814-4.604,2.907C5.057,58.451,0,55.915,0,51.482
		c0-15.365,0-30.73,0-46.096C0,2.411,2.413,0,5.388,0c13.489,0.017,26.978,0.033,40.467,0.05c31.235,0,56.555,25.322,56.555,56.556
		c0,31.235-25.321,56.556-56.556,56.556c-5.468,0-10.936,0-16.404,0C13.185,113.162,0,99.976,0,83.712
		c0-16.266,13.185-29.45,29.45-29.45c4.454,0,8.907,0,13.361,0c2.975,0,5.387,2.412,5.387,5.386c0,1.773,0,3.545,0,5.316
		c0,2.975-2.412,5.387-5.387,5.387c-4.454,0-8.907,0-13.361,0c-7.379,0-13.361,5.982-13.361,13.361s5.982,13.361,13.361,13.361
		c5.468,0,10.936,0,16.404,0c22.35,0,40.467-18.119,40.467-40.468c0-22.35-18.118-40.467-40.467-40.467c-9.921,0-19.843,0-29.765,0
		c0,10.662,0,21.325,0,31.987C16.089,50.125,14.982,51.959,13.213,52.891z"/>
</g>
</svg>
