<?xml version="1.0" encoding="utf-8"?>
<!-- Generator: Adobe Illustrator 16.0.0, SVG Export Plug-In . SVG Version: 6.00 Build 0)  -->
<!DOCTYPE svg PUBLIC "-//W3C//DTD SVG 1.1//EN" "http://www.w3.org/Graphics/SVG/1.1/DTD/svg11.dtd">
<svg version="1.1" id="Layer_1" xmlns="http://www.w3.org/2000/svg" xmlns:xlink="http://www.w3.org/1999/xlink" x="0px" y="0px"
	 width="353px" height="185.9px" viewBox="0 0 353 185.9" enable-background="new 0 0 353 185.9" xml:space="preserve">
<g>
	<path fill="#67C9D3" d="M138.509,52.891c-1.616,0.851-3.142,1.814-4.604,2.907c-3.553,2.653-8.609,0.117-8.609-4.316
		c0-15.365,0-30.73,0-46.096c0-2.975,2.413-5.386,5.389-5.386c13.488,0.017,26.978,0.033,40.467,0.05
		c31.235,0,56.555,25.322,56.555,56.556c0,31.236-25.321,56.556-56.557,56.556c-5.468,0-10.936,0-16.403,0
		c-16.265,0-29.45-13.186-29.45-29.449c0-16.266,13.186-29.451,29.45-29.451c4.453,0,8.907,0,13.36,0
		c2.976,0,5.387,2.412,5.387,5.386c0,1.773,0,3.545,0,5.316c0,2.975-2.411,5.387-5.387,5.387c-4.453,0-8.907,0-13.36,0
		c-7.379,0-13.361,5.982-13.361,13.361s5.982,13.361,13.361,13.361c5.468,0,10.936,0,16.403,0c22.35,0,40.468-18.119,40.468-40.468
		c0-22.35-18.118-40.467-40.468-40.467c-9.921,0-19.843,0-29.765,0c0,10.662,0,21.325,0,31.987
		C141.384,50.125,140.278,51.959,138.509,52.891z"/>
	<rect y="135.4" fill="none" width="353" height="50.5"/>
	<text transform="matrix(1 0 0 1 11.395 171.377)" fill="#67C9D3" font-family="'Lato-Black'" font-size="48">Diana Connolly</text>
</g>
</svg>
