<?xml version="1.0" encoding="utf-8"?>
<!-- Generator: Adobe Illustrator 16.0.0, SVG Export Plug-In . SVG Version: 6.00 Build 0)  -->
<!DOCTYPE svg PUBLIC "-//W3C//DTD SVG 1.1//EN" "http://www.w3.org/Graphics/SVG/1.1/DTD/svg11.dtd">
<svg version="1.1" id="Layer_1" xmlns="http://www.w3.org/2000/svg" xmlns:xlink="http://www.w3.org/1999/xlink" x="0px" y="0px"
	 width="353px" height="185.9px" viewBox="0 0 353 185.9" enable-background="new 0 0 353 185.9" xml:space="preserve">
<g>
	<path fill="#67C9D3" d="M138.509,52.891c-1.616,0.851-3.142,1.813-4.604,2.906c-3.553,2.653-8.609,0.117-8.609-4.315
		c0-15.365,0-30.73,0-46.097c0-2.975,2.413-5.386,5.389-5.386c13.488,0.018,26.978,0.033,40.467,0.05
		c31.235,0,56.555,25.322,56.555,56.557c0,31.235-25.32,56.556-56.557,56.556c-5.468,0-10.936,0-16.403,0
		c-16.265,0-29.45-13.186-29.45-29.449c0-16.266,13.186-29.45,29.45-29.45c4.453,0,8.907,0,13.36,0c2.976,0,5.387,2.411,5.387,5.386
		c0,1.772,0,3.545,0,5.315c0,2.976-2.411,5.388-5.387,5.388c-4.453,0-8.907,0-13.36,0c-7.379,0-13.361,5.981-13.361,13.36
		s5.982,13.361,13.361,13.361c5.468,0,10.936,0,16.403,0c22.35,0,40.468-18.119,40.468-40.468c0-22.351-18.118-40.467-40.468-40.467
		c-9.921,0-19.843,0-29.765,0c0,10.661,0,21.324,0,31.986C141.384,50.125,140.278,51.959,138.509,52.891z"/>
	<rect y="135.4" fill="none" width="353" height="50.5"/>
	<g enable-background="new    ">
		<path fill="#67C9D3" d="M46.507,153.881c0,2.528-0.436,4.86-1.308,6.996c-0.873,2.136-2.1,3.984-3.684,5.544
			s-3.492,2.776-5.724,3.648s-4.708,1.308-7.428,1.308H14.779v-34.968h13.584c2.72,0,5.196,0.44,7.428,1.319
			c2.232,0.881,4.14,2.097,5.724,3.648s2.812,3.396,3.684,5.532C46.071,149.045,46.507,151.369,46.507,153.881z M38.203,153.881
			c0-1.728-0.224-3.288-0.672-4.68c-0.448-1.393-1.092-2.572-1.932-3.54c-0.84-0.968-1.868-1.712-3.084-2.232
			c-1.216-0.52-2.601-0.779-4.152-0.779h-5.424v22.487h5.424c1.552,0,2.936-0.26,4.152-0.779c1.216-0.521,2.244-1.265,3.084-2.232
			c0.84-0.968,1.484-2.148,1.932-3.54C37.979,157.193,38.203,155.625,38.203,153.881z"/>
		<path fill="#67C9D3" d="M58.459,139.673c0,0.592-0.12,1.148-0.36,1.668c-0.24,0.521-0.568,0.977-0.984,1.368
			c-0.416,0.393-0.9,0.704-1.452,0.936c-0.552,0.232-1.14,0.349-1.764,0.349c-0.608,0-1.176-0.116-1.704-0.349
			c-0.528-0.231-0.996-0.543-1.404-0.936c-0.408-0.392-0.729-0.848-0.96-1.368c-0.232-0.52-0.348-1.076-0.348-1.668
			c0-0.607,0.116-1.176,0.348-1.704c0.231-0.527,0.552-0.991,0.96-1.392s0.876-0.712,1.404-0.937
			c0.528-0.224,1.096-0.336,1.704-0.336c0.624,0,1.212,0.112,1.764,0.336c0.552,0.225,1.036,0.536,1.452,0.937
			s0.744,0.864,0.984,1.392C58.339,138.497,58.459,139.065,58.459,139.673z M57.691,146.489v24.888h-7.44v-24.888H57.691z"/>
		<path fill="#67C9D3" d="M62.346,149.945c1.504-1.328,3.172-2.316,5.004-2.965c1.832-0.647,3.795-0.972,5.892-0.972
			c1.504,0,2.86,0.244,4.068,0.732c1.208,0.488,2.232,1.168,3.072,2.04c0.84,0.872,1.484,1.907,1.932,3.107
			c0.448,1.2,0.672,2.513,0.672,3.937v15.552h-3.408c-0.705,0-1.236-0.096-1.596-0.288s-0.66-0.592-0.9-1.2l-0.528-1.368
			c-0.624,0.528-1.224,0.993-1.8,1.393c-0.576,0.4-1.172,0.74-1.788,1.02c-0.616,0.28-1.272,0.488-1.968,0.624
			c-0.696,0.136-1.468,0.204-2.316,0.204c-1.136,0-2.168-0.147-3.096-0.443c-0.928-0.296-1.716-0.732-2.364-1.309
			c-0.648-0.576-1.148-1.292-1.5-2.147c-0.353-0.856-0.528-1.845-0.528-2.965c0-0.896,0.224-1.804,0.672-2.724
			s1.224-1.76,2.328-2.52s2.592-1.396,4.464-1.908c1.872-0.512,4.232-0.8,7.08-0.864v-1.056c0-1.456-0.3-2.508-0.9-3.156
			s-1.452-0.972-2.556-0.972c-0.88,0-1.6,0.096-2.16,0.288c-0.561,0.191-1.06,0.407-1.5,0.647c-0.44,0.24-0.868,0.456-1.284,0.648
			c-0.416,0.191-0.912,0.288-1.488,0.288c-0.512,0-0.944-0.128-1.296-0.385c-0.352-0.255-0.64-0.56-0.864-0.911L62.346,149.945z
			 M75.738,161.249c-1.488,0.064-2.712,0.192-3.672,0.384c-0.96,0.192-1.72,0.433-2.28,0.72c-0.561,0.288-0.948,0.616-1.164,0.984
			c-0.216,0.368-0.324,0.768-0.324,1.2c0,0.848,0.232,1.444,0.696,1.788c0.464,0.344,1.144,0.516,2.04,0.516
			c0.96,0,1.8-0.168,2.52-0.504c0.72-0.336,1.448-0.88,2.184-1.632V161.249z"/>
		<path fill="#67C9D3" d="M94.602,149.177c0.48-0.447,0.976-0.864,1.488-1.248c0.512-0.384,1.06-0.708,1.644-0.972
			c0.584-0.264,1.216-0.472,1.896-0.624c0.68-0.152,1.419-0.229,2.22-0.229c1.36,0,2.564,0.236,3.612,0.708
			c1.048,0.473,1.932,1.129,2.652,1.969s1.264,1.84,1.632,3s0.552,2.42,0.552,3.779v15.816h-7.44V155.56
			c0-1.216-0.28-2.163-0.84-2.844c-0.56-0.68-1.384-1.02-2.472-1.02c-0.816,0-1.581,0.172-2.292,0.516
			c-0.712,0.345-1.404,0.812-2.076,1.404v17.76h-7.44v-24.888h4.608c0.928,0,1.536,0.416,1.824,1.248L94.602,149.177z"/>
		<path fill="#67C9D3" d="M114.545,149.945c1.504-1.328,3.172-2.316,5.004-2.965c1.832-0.647,3.795-0.972,5.892-0.972
			c1.504,0,2.86,0.244,4.068,0.732c1.208,0.488,2.232,1.168,3.072,2.04c0.84,0.872,1.484,1.907,1.932,3.107
			c0.448,1.2,0.672,2.513,0.672,3.937v15.552h-3.408c-0.705,0-1.236-0.096-1.596-0.288s-0.66-0.592-0.9-1.2l-0.528-1.368
			c-0.624,0.528-1.224,0.993-1.8,1.393c-0.576,0.4-1.172,0.74-1.788,1.02c-0.616,0.28-1.272,0.488-1.968,0.624
			c-0.696,0.136-1.468,0.204-2.316,0.204c-1.136,0-2.168-0.147-3.096-0.443c-0.928-0.296-1.716-0.732-2.364-1.309
			c-0.648-0.576-1.148-1.292-1.5-2.147c-0.353-0.856-0.528-1.845-0.528-2.965c0-0.896,0.224-1.804,0.672-2.724
			s1.224-1.76,2.328-2.52s2.592-1.396,4.464-1.908c1.872-0.512,4.232-0.8,7.08-0.864v-1.056c0-1.456-0.3-2.508-0.9-3.156
			s-1.452-0.972-2.556-0.972c-0.88,0-1.6,0.096-2.16,0.288c-0.561,0.191-1.06,0.407-1.5,0.647c-0.44,0.24-0.868,0.456-1.284,0.648
			c-0.416,0.191-0.912,0.288-1.488,0.288c-0.512,0-0.944-0.128-1.296-0.385c-0.352-0.255-0.64-0.56-0.864-0.911L114.545,149.945z
			 M127.938,161.249c-1.488,0.064-2.712,0.192-3.672,0.384c-0.96,0.192-1.72,0.433-2.28,0.72c-0.561,0.288-0.948,0.616-1.164,0.984
			c-0.216,0.368-0.324,0.768-0.324,1.2c0,0.848,0.232,1.444,0.696,1.788c0.464,0.344,1.144,0.516,2.04,0.516
			c0.96,0,1.8-0.168,2.52-0.504c0.72-0.336,1.448-0.88,2.184-1.632V161.249z"/>
		<path fill="#67C9D3" d="M175.457,162.329c0.192,0,0.384,0.036,0.576,0.107c0.192,0.072,0.376,0.196,0.552,0.372l3.216,3.385
			c-1.408,1.84-3.172,3.228-5.292,4.164c-2.12,0.936-4.628,1.403-7.524,1.403c-2.656,0-5.036-0.452-7.14-1.355
			c-2.104-0.904-3.888-2.152-5.352-3.744c-1.464-1.592-2.588-3.48-3.372-5.664c-0.784-2.185-1.176-4.556-1.176-7.116
			c0-2.607,0.424-5.004,1.272-7.188c0.848-2.185,2.04-4.068,3.576-5.652s3.375-2.816,5.52-3.696c2.144-0.88,4.503-1.319,7.08-1.319
			c1.312,0,2.547,0.116,3.708,0.348c1.16,0.232,2.244,0.552,3.252,0.96c1.008,0.408,1.936,0.9,2.784,1.476
			c0.848,0.576,1.6,1.2,2.256,1.872l-2.736,3.672c-0.176,0.225-0.384,0.429-0.624,0.612c-0.24,0.185-0.576,0.276-1.008,0.276
			c-0.288,0-0.56-0.064-0.816-0.192c-0.256-0.128-0.528-0.284-0.816-0.468c-0.288-0.184-0.604-0.384-0.948-0.601
			c-0.344-0.216-0.752-0.415-1.224-0.6c-0.472-0.184-1.024-0.34-1.656-0.468c-0.632-0.128-1.372-0.192-2.22-0.192
			c-1.344,0-2.572,0.248-3.684,0.744c-1.112,0.496-2.072,1.221-2.88,2.172c-0.808,0.952-1.432,2.12-1.872,3.504
			c-0.44,1.385-0.66,2.964-0.66,4.74c0,1.792,0.244,3.384,0.732,4.776c0.488,1.392,1.152,2.564,1.992,3.516
			c0.84,0.952,1.82,1.677,2.94,2.172c1.12,0.496,2.319,0.744,3.6,0.744c0.736,0,1.408-0.036,2.016-0.108
			c0.608-0.071,1.176-0.191,1.704-0.359s1.024-0.392,1.488-0.672s0.936-0.637,1.416-1.068c0.192-0.159,0.4-0.292,0.624-0.396
			C174.984,162.381,175.216,162.329,175.457,162.329z"/>
		<path fill="#67C9D3" d="M193.433,146.104c1.888,0,3.608,0.297,5.159,0.889c1.553,0.592,2.885,1.439,3.996,2.544
			c1.112,1.104,1.977,2.444,2.593,4.02c0.616,1.576,0.924,3.349,0.924,5.316c0,1.984-0.308,3.772-0.924,5.364
			s-1.48,2.943-2.593,4.056c-1.111,1.112-2.443,1.968-3.996,2.568c-1.551,0.6-3.271,0.899-5.159,0.899
			c-1.904,0-3.636-0.3-5.196-0.899c-1.561-0.601-2.904-1.456-4.031-2.568c-1.129-1.112-2.001-2.464-2.617-4.056
			c-0.615-1.592-0.924-3.38-0.924-5.364c0-1.968,0.309-3.74,0.924-5.316c0.616-1.575,1.488-2.916,2.617-4.02
			c1.127-1.104,2.471-1.952,4.031-2.544S191.528,146.104,193.433,146.104z M193.433,166.241c1.712,0,2.972-0.604,3.78-1.812
			c0.807-1.208,1.211-3.044,1.211-5.508s-0.404-4.296-1.211-5.496c-0.809-1.2-2.068-1.8-3.78-1.8c-1.761,0-3.048,0.6-3.864,1.8
			s-1.225,3.032-1.225,5.496s0.408,4.3,1.225,5.508S191.672,166.241,193.433,166.241z"/>
		<path fill="#67C9D3" d="M216.712,149.177c0.479-0.447,0.976-0.864,1.488-1.248c0.512-0.384,1.06-0.708,1.644-0.972
			s1.217-0.472,1.896-0.624s1.42-0.229,2.22-0.229c1.36,0,2.563,0.236,3.612,0.708c1.048,0.473,1.932,1.129,2.652,1.969
			c0.72,0.84,1.264,1.84,1.631,3c0.369,1.16,0.553,2.42,0.553,3.779v15.816h-7.439V155.56c0-1.216-0.281-2.163-0.841-2.844
			c-0.56-0.68-1.384-1.02-2.472-1.02c-0.816,0-1.58,0.172-2.292,0.516c-0.712,0.345-1.404,0.812-2.076,1.404v17.76h-7.44v-24.888
			h4.608c0.928,0,1.536,0.416,1.824,1.248L216.712,149.177z"/>
		<path fill="#67C9D3" d="M244.072,149.177c0.479-0.447,0.976-0.864,1.488-1.248c0.512-0.384,1.059-0.708,1.644-0.972
			c0.584-0.264,1.216-0.472,1.896-0.624s1.42-0.229,2.221-0.229c1.359,0,2.563,0.236,3.611,0.708
			c1.049,0.473,1.932,1.129,2.652,1.969s1.264,1.84,1.632,3s0.552,2.42,0.552,3.779v15.816h-7.439V155.56
			c0-1.216-0.28-2.163-0.84-2.844c-0.561-0.68-1.385-1.02-2.473-1.02c-0.815,0-1.58,0.172-2.291,0.516
			c-0.713,0.345-1.404,0.812-2.076,1.404v17.76h-7.44v-24.888h4.608c0.928,0,1.535,0.416,1.824,1.248L244.072,149.177z"/>
		<path fill="#67C9D3" d="M276.039,146.104c1.889,0,3.608,0.297,5.16,0.889s2.884,1.439,3.996,2.544
			c1.111,1.104,1.977,2.444,2.592,4.02c0.616,1.576,0.924,3.349,0.924,5.316c0,1.984-0.308,3.772-0.924,5.364
			c-0.615,1.592-1.48,2.943-2.592,4.056c-1.112,1.112-2.444,1.968-3.996,2.568c-1.552,0.6-3.271,0.899-5.16,0.899
			c-1.904,0-3.636-0.3-5.195-0.899c-1.561-0.601-2.904-1.456-4.032-2.568s-2.001-2.464-2.616-4.056
			c-0.616-1.592-0.924-3.38-0.924-5.364c0-1.968,0.308-3.74,0.924-5.316c0.615-1.575,1.488-2.916,2.616-4.02
			c1.128-1.104,2.472-1.952,4.032-2.544C272.403,146.401,274.135,146.104,276.039,146.104z M276.039,166.241
			c1.713,0,2.973-0.604,3.78-1.812s1.212-3.044,1.212-5.508s-0.404-4.296-1.212-5.496s-2.067-1.8-3.78-1.8
			c-1.76,0-3.048,0.6-3.863,1.8c-0.816,1.2-1.225,3.032-1.225,5.496s0.408,4.3,1.225,5.508
			C272.991,165.636,274.279,166.241,276.039,166.241z"/>
		<path fill="#67C9D3" d="M299.895,135.449v35.928h-7.439v-35.928H299.895z"/>
		<path fill="#67C9D3" d="M312.375,135.449v35.928h-7.44v-35.928H312.375z"/>
		<path fill="#67C9D3" d="M341.055,146.489l-13.297,31.344c-0.225,0.496-0.496,0.859-0.816,1.092
			c-0.32,0.231-0.832,0.349-1.535,0.349h-5.568l4.801-10.08l-9.936-22.704h6.574c0.576,0,1.021,0.128,1.332,0.384
			c0.312,0.256,0.541,0.561,0.686,0.912l4.08,10.728c0.383,0.977,0.695,1.977,0.936,3c0.176-0.512,0.352-1.023,0.527-1.536
			c0.176-0.512,0.359-1.016,0.553-1.512l3.695-10.68c0.145-0.368,0.4-0.676,0.768-0.924c0.369-0.248,0.768-0.372,1.201-0.372
			H341.055z"/>
	</g>
</g>
</svg>
